# xmcd CD database file generated by Grip 3.0.4
#
# Track frame offsets:
#       150
#       18501
#       41593
#       55019
#       79174
#       104929
#       121414
#       138191
#       161143
#       185113
#       207226
#       224042
#
# Disc length: 3130 seconds
#
# Revision: 0
# Processed by: cddbd v1.5.1PL0 Copyright (c) Steve Scherf et al.
# Submitted via: Grip 3.0.4  lee@brave.com
#
DISCID=b80c380c
DTITLE=Elvis T. Busboy and The Blues Butchers - Little Jr. King
DYEAR=2005
DGENRE=blues
TTITLE0=Ask Me No Questions
TTITLE1=Little By Little
TTITLE2=Sen-Say-Shun
TTITLE3=Mystery Train
TTITLE4=As The Years Go Passing By
TTITLE5=I Play Dirty
TTITLE6=I'd Rather Be Blind
TTITLE7=I Need My Baby
TTITLE8=Only Getting Second Best
TTITLE9=Don't Burn Down The Bridge
TTITLE10=Dirty Work Going On
TTITLE11=Bonus Track
EXTD=
EXTT0=
EXTT1=
EXTT2=
EXTT3=
EXTT4=
EXTT5=
EXTT6=
EXTT7=
EXTT8=
EXTT9=
EXTT10=
EXTT11=
PLAYORDER=
